<svg width="68" height="68" viewBox="0 0 68 68" fill="none" xmlns="http://www.w3.org/2000/svg">
<path d="M31.875 38.5156H24.7031C24.5622 38.5156 24.4271 38.5716 24.3275 38.6712C24.2278 38.7709 24.1719 38.906 24.1719 39.0469V42.2344C24.1719 42.3753 24.2278 42.5104 24.3275 42.61C24.4271 42.7097 24.5622 42.7656 24.7031 42.7656H31.875V49.9375C31.875 50.0784 31.931 50.2135 32.0306 50.3132C32.1302 50.4128 32.2654 50.4688 32.4062 50.4688H35.5938C35.7346 50.4688 35.8698 50.4128 35.9694 50.3132C36.069 50.2135 36.125 50.0784 36.125 49.9375V42.7656H43.2969C43.4378 42.7656 43.5729 42.7097 43.6725 42.61C43.7722 42.5104 43.8281 42.3753 43.8281 42.2344V39.0469C43.8281 38.906 43.7722 38.7709 43.6725 38.6712C43.5729 38.5716 43.4378 38.5156 43.2969 38.5156H36.125V31.3438C36.125 31.2029 36.069 31.0677 35.9694 30.9681C35.8698 30.8685 35.7346 30.8125 35.5938 30.8125H32.4062C32.2654 30.8125 32.1302 30.8685 32.0306 30.9681C31.931 31.0677 31.875 31.2029 31.875 31.3438V38.5156ZM56.7508 19.1715C57.1492 19.5699 57.375 20.1078 57.375 20.6723V61.625C57.375 62.8004 56.4254 63.75 55.25 63.75H12.75C11.5746 63.75 10.625 62.8004 10.625 61.625V6.375C10.625 5.19961 11.5746 4.25 12.75 4.25H40.9527C41.5172 4.25 42.0617 4.47578 42.4602 4.87422L56.7508 19.1715V19.1715ZM52.4742 21.6484L39.9766 9.15078V21.6484H52.4742Z" fill="#5B4F6D"/>
</svg>
