<svg width="32" height="24" viewBox="0 0 32 24" fill="none" xmlns="http://www.w3.org/2000/svg">
<path d="M30.3 3.35L24 6.9V2C24 1.46957 23.7893 0.960859 23.4142 0.585786C23.0391 0.210714 22.5304 0 22 0H4C2.93913 0 1.92172 0.421427 1.17157 1.17157C0.421427 1.92172 0 2.93913 0 4V20C0 21.0609 0.421427 22.0783 1.17157 22.8284C1.92172 23.5786 2.93913 24 4 24H22C22.5304 24 23.0391 23.7893 23.4142 23.4142C23.7893 23.0391 24 22.5304 24 22V17.08L30.3 20.63C30.4616 20.7356 30.6482 20.7968 30.841 20.8075C31.0338 20.8181 31.2259 20.7778 31.3982 20.6907C31.5705 20.6035 31.7168 20.4726 31.8225 20.311C31.9281 20.1493 31.9893 19.9628 32 19.77V4.2C31.9877 4.00808 31.9253 3.82275 31.819 3.66248C31.7127 3.50221 31.5662 3.37261 31.3942 3.28661C31.2222 3.2006 31.0306 3.1612 30.8386 3.17232C30.6467 3.18344 30.4609 3.24471 30.3 3.35V3.35Z" fill="#8F9092"/>
</svg>
