<svg width="19" height="19" viewBox="0 0 19 19" fill="none" xmlns="http://www.w3.org/2000/svg">
<path d="M1.42 18.579C1.28127 18.5788 1.14409 18.5497 1.01721 18.4935C0.89033 18.4374 0.776516 18.3555 0.683005 18.253C0.587804 18.1514 0.515158 18.0308 0.469834 17.8991C0.424509 17.7674 0.407528 17.6277 0.420005 17.489L0.665005 14.795L11.983 3.481L15.52 7.017L4.205 18.33L1.51101 18.575C1.48075 18.5778 1.45038 18.5791 1.42 18.579V18.579ZM16.226 6.31L12.69 2.774L14.811 0.653C14.9039 0.560024 15.0142 0.486265 15.1356 0.435941C15.257 0.385616 15.3871 0.359714 15.5185 0.359714C15.6499 0.359714 15.78 0.385616 15.9014 0.435941C16.0228 0.486265 16.1331 0.560024 16.226 0.653L18.347 2.774C18.44 2.86687 18.5137 2.97716 18.5641 3.09856C18.6144 3.21996 18.6403 3.35008 18.6403 3.4815C18.6403 3.61292 18.6144 3.74304 18.5641 3.86444C18.5137 3.98584 18.44 4.09613 18.347 4.189L16.227 6.309L16.226 6.31V6.31Z" fill="#747474"/>
</svg>
