<svg width="6" height="10" viewBox="0 0 6 10" fill="none" xmlns="http://www.w3.org/2000/svg">
<path d="M0.254973 2.786C0.253604 2.81829 0.258856 2.85053 0.270405 2.88072C0.281954 2.91091 0.299556 2.93841 0.322129 2.96155C0.344702 2.98468 0.371769 3.00296 0.401665 3.01524C0.431562 3.02753 0.463655 3.03357 0.495973 3.033H1.32097C1.45897 3.033 1.56897 2.92 1.58697 2.783C1.67697 2.127 2.12697 1.649 2.92897 1.649C3.61497 1.649 4.24297 1.992 4.24297 2.817C4.24297 3.452 3.86897 3.744 3.27797 4.188C2.60497 4.677 2.07197 5.248 2.10997 6.175L2.11297 6.392C2.11402 6.45761 2.14083 6.52017 2.1876 6.5662C2.23437 6.61222 2.29736 6.63801 2.36297 6.638H3.17397C3.24028 6.638 3.30387 6.61166 3.35075 6.56478C3.39763 6.51789 3.42397 6.4543 3.42397 6.388V6.283C3.42397 5.565 3.69697 5.356 4.43397 4.797C5.04297 4.334 5.67797 3.82 5.67797 2.741C5.67797 1.23 4.40197 0.5 3.00497 0.5C1.73797 0.5 0.349973 1.09 0.254973 2.786V2.786ZM1.81197 8.549C1.81197 9.082 2.23697 9.476 2.82197 9.476C3.43097 9.476 3.84997 9.082 3.84997 8.549C3.84997 7.997 3.42997 7.609 2.82097 7.609C2.23697 7.609 1.81197 7.997 1.81197 8.549Z" fill="#747474"/>
</svg>
