<svg width="9" height="9" viewBox="0 0 9 9" fill="none" xmlns="http://www.w3.org/2000/svg">
<path d="M3.84883 7.69724C4.70277 7.69707 5.53211 7.41121 6.20479 6.88518L8.31972 9L9 8.31976L6.88507 6.20494C7.4114 5.53223 7.69745 4.70274 7.69765 3.84862C7.69765 1.72659 5.97097 0 3.84883 0C1.72668 0 0 1.72659 0 3.84862C0 5.97065 1.72668 7.69724 3.84883 7.69724ZM3.84883 0.962155C5.4408 0.962155 6.73545 2.25674 6.73545 3.84862C6.73545 5.44051 5.4408 6.73509 3.84883 6.73509C2.25686 6.73509 0.962207 5.44051 0.962207 3.84862C0.962207 2.25674 2.25686 0.962155 3.84883 0.962155Z" fill="#AEAEAE"/>
</svg>
