<svg width="44" height="44" viewBox="0 0 44 44" fill="none" xmlns="http://www.w3.org/2000/svg">
<path d="M22 2.75C9.84844 2.75 0 10.7508 0 20.625C0 24.8875 1.83906 28.7891 4.89844 31.857C3.82422 36.1883 0.232031 40.0469 0.189063 40.0898C0 40.2875 -0.0515625 40.5797 0.0601562 40.8375C0.171875 41.0953 0.4125 41.25 0.6875 41.25C6.38516 41.25 10.6563 38.5172 12.7703 36.8328C15.5805 37.8898 18.7 38.5 22 38.5C34.1516 38.5 44 30.4992 44 20.625C44 10.7508 34.1516 2.75 22 2.75ZM11.0172 26.125H9.96875C9.59062 26.125 9.28125 25.8156 9.28125 25.4375V24.0625C9.28125 23.6844 9.59062 23.375 9.96875 23.375H11.0258C11.5414 23.375 11.9195 23.0742 11.9195 22.8078C11.9195 22.6961 11.8508 22.5758 11.7391 22.4813L9.85703 20.8656C9.12656 20.2469 8.71406 19.3617 8.71406 18.4508C8.71406 16.6203 10.3469 15.1336 12.3578 15.1336H13.4062C13.7844 15.1336 14.0938 15.443 14.0938 15.8211V17.1961C14.0938 17.5742 13.7844 17.8836 13.4062 17.8836H12.3492C11.8336 17.8836 11.4555 18.1844 11.4555 18.4508C11.4555 18.5625 11.5242 18.6828 11.6359 18.7773L13.518 20.393C14.2484 21.0117 14.6609 21.8969 14.6609 22.8078C14.6695 24.6383 13.0281 26.125 11.0172 26.125ZM27.5 25.4375C27.5 25.8156 27.1906 26.125 26.8125 26.125H25.4375C25.0594 26.125 24.75 25.8156 24.75 25.4375V19.5766L22.6188 24.3719C22.3695 24.8789 21.6391 24.8789 21.3898 24.3719L19.25 19.5766V25.4375C19.25 25.8156 18.9406 26.125 18.5625 26.125H17.1875C16.8094 26.125 16.5 25.8156 16.5 25.4375V16.5C16.5 15.7437 17.1187 15.125 17.875 15.125H19.25C19.7742 15.125 20.2469 15.4172 20.4789 15.8813L22 18.9234L23.5211 15.8813C23.7531 15.4172 24.2344 15.125 24.75 15.125H26.125C26.8813 15.125 27.5 15.7437 27.5 16.5V25.4375ZM31.6508 26.125H30.5938C30.2156 26.125 29.9062 25.8156 29.9062 25.4375V24.0625C29.9062 23.6844 30.2156 23.375 30.5938 23.375H31.6508C32.1664 23.375 32.5445 23.0742 32.5445 22.8078C32.5445 22.6961 32.4758 22.5758 32.3641 22.4813L30.482 20.8656C29.7516 20.2469 29.3391 19.3617 29.3391 18.4508C29.3391 16.6203 30.9719 15.1336 32.9828 15.1336H34.0312C34.4094 15.1336 34.7188 15.443 34.7188 15.8211V17.1961C34.7188 17.5742 34.4094 17.8836 34.0312 17.8836H32.9742C32.4586 17.8836 32.0805 18.1844 32.0805 18.4508C32.0805 18.5625 32.1492 18.6828 32.2609 18.7773L34.143 20.393C34.8734 21.0117 35.2859 21.8969 35.2859 22.8078C35.2945 24.6383 33.6617 26.125 31.6508 26.125Z" fill="#5B4F6D"/>
</svg>
