<svg width="10" height="11" viewBox="0 0 10 11" fill="none" xmlns="http://www.w3.org/2000/svg">
<path d="M0.358203 4.13789L3.33359 3.70547L4.66367 1.00898C4.7 0.935154 4.75977 0.875389 4.83359 0.839061C5.01875 0.747654 5.24375 0.823826 5.33633 1.00898L6.66641 3.70547L9.6418 4.13789C9.72383 4.14961 9.79883 4.18828 9.85625 4.24687C9.92567 4.31822 9.96392 4.41422 9.96261 4.51376C9.96129 4.6133 9.9205 4.70824 9.84922 4.77773L7.69649 6.87656L8.20508 9.84023C8.21701 9.90917 8.20938 9.98008 8.18306 10.0449C8.15674 10.1097 8.11278 10.1659 8.05617 10.207C7.99956 10.2481 7.93256 10.2725 7.86277 10.2775C7.79299 10.2825 7.7232 10.2678 7.66133 10.2352L5 8.83593L2.33867 10.2352C2.26602 10.2738 2.18164 10.2867 2.10078 10.2727C1.89687 10.2375 1.75977 10.0441 1.79492 9.84023L2.30352 6.87656L0.150781 4.77773C0.0921876 4.72031 0.0535158 4.64531 0.0417971 4.56328C0.0101565 4.3582 0.153125 4.16836 0.358203 4.13789V4.13789Z" fill="#919191"/>
</svg>
